<?xml version="1.0" encoding="iso-8859-1"?>
<!-- Uploaded to: SVG Repo, www.svgrepo.com, Generator: SVG Repo Mixer Tools -->
<svg fill="#000000" height="800px" width="800px" version="1.1" id="Layer_1" xmlns="http://www.w3.org/2000/svg" xmlns:xlink="http://www.w3.org/1999/xlink" 
	 viewBox="0 0 512 512" xml:space="preserve">
<g>
	<g>
		<path d="M476.142,360.579c-1.758-6.475-5.932-11.878-11.754-15.212l-14.217-8.145l1.146-2c2.171-3.79,0.909-8.621-2.839-10.864
			l-107.54-64.352v-98.069c0-42.141-34.285-76.426-76.426-76.426h-17.102c-42.141,0-76.426,34.285-76.426,76.426v17.102
			c0,4.428,3.588,8.017,8.017,8.017c4.428,0,8.017-3.588,8.017-8.017v-17.102c0-33.3,27.092-60.393,60.393-60.393h17.102
			c33.3,0,60.392,27.092,60.392,60.393v94.597h-9.62V179.04c0-13.851-11.268-25.119-25.119-25.119h-68.409
			c-13.851,0-25.119,11.268-25.119,25.119v77.495h-9.62V212.71c0-4.428-3.588-8.017-8.017-8.017c-4.428,0-8.017,3.588-8.017,8.017
			v47.296l-107.54,64.351c-3.748,2.244-5.011,7.074-2.839,10.864l1.146,2l-14.217,8.145c-11.869,6.799-16.123,22.388-9.309,34.281
			c4.636,8.093,13.12,12.629,21.839,12.629c4.232,0,8.518-1.069,12.445-3.318l14.215-8.145l0.932,1.628
			c2.125,3.708,6.948,5.099,10.724,3.091l59.789-31.838l-21.308,149.156c-0.68,4.759,3.134,9.151,7.937,9.151h222.33
			c4.803,0,8.616-4.392,7.937-9.151l-9.396-65.771c-0.626-4.386-4.697-7.423-9.07-6.802c-4.384,0.626-7.429,4.687-6.802,9.07
			l8.088,56.621H154.039l31.914-223.399h140.014l17.562,122.928c0.626,4.385,4.694,7.416,9.07,6.802
			c4.384-0.626,7.429-4.687,6.802-9.07l-5.648-39.535l59.787,31.839c3.775,2.007,8.599,0.617,10.724-3.091l0.933-1.628l14.216,8.145
			c11.879,6.805,27.488,2.55,34.282-9.31C477.032,373.826,477.901,367.054,476.142,360.579z M64.537,375.046
			c-4.348,2.492-9.91,0.979-12.401-3.368c-2.49-4.346-0.98-9.909,3.367-12.399l14.216-8.144l9.032,15.767L64.537,375.046z
			 M160.977,334.032l-62.432,33.247c-0.175-0.689-18.767-33.082-19.383-33.642l89.525-53.571L160.977,334.032z M299.251,256.534
			h-86.58v-25.203c12.009,9.96,27.221,15.583,43.29,15.583c16.055,0,31.276-5.629,43.29-15.59V256.534z M299.251,207.574
			c-0.001,0.001-0.002,0.002-0.003,0.004c-9.643,14.591-25.824,23.303-43.287,23.303c-17.486,0-33.648-8.716-43.29-23.32V179.04
			c0-5.01,4.077-9.086,9.086-9.086h68.409c5.01,0,9.086,4.076,9.086,9.086V207.574z M413.378,367.279l-62.139-33.092
			c-0.095-0.05-0.193-0.09-0.29-0.136l-7.713-53.986l89.525,53.571C432.144,334.196,413.553,366.59,413.378,367.279z
			 M459.786,371.679c-2.49,4.346-8.052,5.859-12.4,3.367l-14.216-8.144l9.032-15.767l14.216,8.144
			C460.766,361.769,462.276,367.331,459.786,371.679z"/>
	</g>
</g>
<g>
	<g>
		<path d="M281.614,324.944h-17.637v-17.637c0-4.428-3.588-8.017-8.017-8.017c-4.428,0-8.017,3.588-8.017,8.017v17.637h-17.637
			c-4.428,0-8.017,3.588-8.017,8.017c0,4.428,3.588,8.017,8.017,8.017h17.637v68.944c0,4.428,3.589,8.017,8.017,8.017
			c4.428,0,8.017-3.588,8.017-8.017v-68.944h17.637c4.428,0,8.017-3.588,8.017-8.017
			C289.631,328.532,286.042,324.944,281.614,324.944z"/>
	</g>
</g>
<g>
	<g>
		<path d="M255.961,42.756c-75.147,0-136.284,61.136-136.284,136.284c0,29.769,9.425,58.049,27.26,81.786
			c1.576,2.097,3.981,3.202,6.415,3.201c1.675,0,3.366-0.523,4.809-1.608c3.54-2.659,4.253-7.684,1.594-11.224
			c-15.731-20.938-24.045-45.889-24.045-72.156c0-66.307,53.945-120.251,120.251-120.251s120.25,53.944,120.25,120.251
			c0,26.263-8.312,51.21-24.037,72.146c-2.658,3.54-1.944,8.565,1.596,11.224c3.539,2.657,8.565,1.943,11.224-1.596
			c17.828-23.734,27.25-52.011,27.25-81.775C392.245,103.892,331.108,42.756,255.961,42.756z"/>
	</g>
</g>
<g>
	<g>
		<path d="M255.961,0c-4.428,0-8.017,3.588-8.017,8.017v17.102c0,4.428,3.589,8.017,8.017,8.017c4.428,0,8.017-3.588,8.017-8.017
			V8.017C263.977,3.588,260.389,0,255.961,0z"/>
	</g>
</g>
<g>
	<g>
		<path d="M181.668,42.878l-8.551-14.811c-2.213-3.835-7.119-5.146-10.951-2.934c-3.834,2.214-5.148,7.117-2.934,10.951l8.55,14.811
			c2.355,4.081,7.898,5.241,11.7,2.445C182.729,50.951,183.682,46.364,181.668,42.878z"/>
	</g>
</g>
<g>
	<g>
		<path d="M119.264,99.411l-14.811-8.551c-3.837-2.214-8.738-0.901-10.951,2.934c-2.214,3.835-0.9,8.738,2.934,10.952l14.811,8.551
			c4.091,2.36,9.463,0.583,11.355-3.733C124.221,105.874,122.751,101.425,119.264,99.411z"/>
	</g>
</g>
<g>
	<g>
		<path d="M93.489,179.574H76.386c-4.428,0-8.017,3.588-8.017,8.017s3.589,8.017,8.017,8.017h17.102
			c4.428,0,8.017-3.588,8.017-8.017S97.917,179.574,93.489,179.574z"/>
	</g>
</g>
<g>
	<g>
		<path d="M122.198,264.819c-2.214-3.836-7.119-5.147-10.951-2.935l-14.811,8.551c-3.487,2.014-4.956,6.463-3.338,10.153
			c1.891,4.314,7.265,6.094,11.355,3.733l14.811-8.551C123.098,273.557,124.412,268.654,122.198,264.819z"/>
	</g>
</g>
<g>
	<g>
		<path d="M415.484,270.434l-14.811-8.551c-3.836-2.213-8.738-0.901-10.951,2.934c-2.215,3.835-0.9,8.738,2.934,10.952l14.811,8.551
			c4.091,2.36,9.463,0.583,11.355-3.733C420.441,276.897,418.971,272.448,415.484,270.434z"/>
	</g>
</g>
<g>
	<g>
		<path d="M435.535,179.574h-17.102c-4.427,0-8.017,3.588-8.017,8.017s3.588,8.017,8.017,8.017h17.102
			c4.428,0,8.017-3.588,8.017-8.017S439.963,179.574,435.535,179.574z"/>
	</g>
</g>
<g>
	<g>
		<path d="M418.418,93.795c-2.213-3.835-7.119-5.147-10.951-2.934l-14.811,8.551c-2.982,1.722-4.557,5.27-3.829,8.637
			c0.79,3.649,4.111,6.324,7.845,6.324c1.36,0,2.74-0.346,4.001-1.075l14.811-8.551C419.318,102.533,420.632,97.63,418.418,93.795z"
			/>
	</g>
</g>
<g>
	<g>
		<path d="M349.756,25.133c-3.836-2.213-8.738-0.901-10.951,2.934l-8.551,14.811c-2.214,3.834-0.9,8.737,2.934,10.951
			c3.788,2.185,8.768,0.848,10.951-2.934l8.551-14.811C354.904,32.25,353.59,27.347,349.756,25.133z"/>
	</g>
</g>
</svg>