<?xml version="1.0" ?>
<!-- Uploaded to: SVG Repo, www.svgrepo.com, Generator: SVG Repo Mixer Tools -->
<svg fill="#000000" width="800px" height="800px" viewBox="0 0 64 64" xmlns="http://www.w3.org/2000/svg">
<g data-name="21 payment" id="_21_payment">
<path d="M29.38,9.97H9.81a2.006,2.006,0,0,0-2,2v4.47a2.006,2.006,0,0,0,2,2H29.38a2,2,0,0,0,2-2V11.97A2,2,0,0,0,29.38,9.97Zm0,6.47H9.81V11.97H29.38Z"/>
<path d="M10.97,21.83a3.16,3.16,0,1,0,3.16,3.16A3.167,3.167,0,0,0,10.97,21.83Zm0,4.32a1.16,1.16,0,1,1,1.16-1.16A1.161,1.161,0,0,1,10.97,26.15Z"/>
<path d="M19.6,21.83a3.16,3.16,0,1,0,3.15,3.16A3.167,3.167,0,0,0,19.6,21.83Zm0,4.32a1.16,1.16,0,1,1,1.15-1.16A1.161,1.161,0,0,1,19.6,26.15Z"/>
<path d="M28.23,21.83a3.16,3.16,0,1,0,3.15,3.16A3.16,3.16,0,0,0,28.23,21.83Zm0,4.32a1.16,1.16,0,1,1,1.15-1.16A1.161,1.161,0,0,1,28.23,26.15Z"/>
<path d="M10.97,30.46a3.155,3.155,0,1,0,3.16,3.16A3.167,3.167,0,0,0,10.97,30.46Zm0,4.31a1.155,1.155,0,1,1,1.16-1.15A1.159,1.159,0,0,1,10.97,34.77Z"/>
<path d="M19.6,30.46a3.155,3.155,0,1,0,3.15,3.16A3.167,3.167,0,0,0,19.6,30.46Zm0,4.31a1.155,1.155,0,1,1,1.15-1.15A1.159,1.159,0,0,1,19.6,34.77Z"/>
<path d="M28.23,30.46a3.155,3.155,0,1,0,3.15,3.16A3.16,3.16,0,0,0,28.23,30.46Zm0,4.31a1.155,1.155,0,1,1,1.15-1.15A1.159,1.159,0,0,1,28.23,34.77Z"/>
<path d="M10.97,39.09a3.155,3.155,0,1,0,3.16,3.16A3.16,3.16,0,0,0,10.97,39.09Zm0,4.31a1.155,1.155,0,1,1,1.16-1.15A1.159,1.159,0,0,1,10.97,43.4Z"/>
<path d="M19.6,39.09a3.155,3.155,0,1,0,3.15,3.16A3.16,3.16,0,0,0,19.6,39.09Zm0,4.31a1.155,1.155,0,1,1,1.15-1.15A1.159,1.159,0,0,1,19.6,43.4Z"/>
<path d="M10.97,47.72a3.155,3.155,0,1,0,3.16,3.15A3.158,3.158,0,0,0,10.97,47.72Zm0,4.31a1.155,1.155,0,1,1,1.16-1.16A1.161,1.161,0,0,1,10.97,52.03Z"/>
<path d="M19.6,47.72a3.155,3.155,0,1,0,3.15,3.15A3.158,3.158,0,0,0,19.6,47.72Zm0,4.31a1.155,1.155,0,1,1,0-2.31,1.155,1.155,0,0,1,0,2.31Z"/>
<path d="M29.38,39.09H27.07a2.006,2.006,0,0,0-2,2V52.03a2.006,2.006,0,0,0,2,2h2.31a2,2,0,0,0,2-2V41.09A2,2,0,0,0,29.38,39.09Zm0,12.94H27.07V41.09h2.31Z"/>
<path d="M56.26,11.05H35.7V9.58a5.008,5.008,0,0,0-5-5H8.5a5,5,0,0,0-5,5V54.42a5,5,0,0,0,5,5H30.7a5.008,5.008,0,0,0,5-5V52.95H56.26a4.24,4.24,0,0,0,4.24-4.23V15.28A4.24,4.24,0,0,0,56.26,11.05ZM33.7,54.42a3,3,0,0,1-3,3H8.5a3,3,0,0,1-3-3V9.58a3,3,0,0,1,3-3H30.7a3,3,0,0,1,3,3Zm6.47-3.47H35.7V13.05h4.47ZM58.5,48.72a2.234,2.234,0,0,1-2.24,2.23H42.17V13.05H56.26a2.234,2.234,0,0,1,2.24,2.23Z"/>
<path d="M56.19,36.31a5.855,5.855,0,0,0-11.71,0,5.768,5.768,0,0,0,1,3.24,5.737,5.737,0,0,0-1,3.23,5.855,5.855,0,1,0,11.71,0,5.737,5.737,0,0,0-1-3.23A5.768,5.768,0,0,0,56.19,36.31ZM50.33,46.64a3.86,3.86,0,0,1-3.85-3.86,3.722,3.722,0,0,1,.99-2.55v-.01l.01-.01a3.824,3.824,0,0,1,5.71,0v.01c.01,0,.01,0,.01.01a3.722,3.722,0,0,1,.99,2.55A3.862,3.862,0,0,1,50.33,46.64Zm3.44-8.59a4.889,4.889,0,0,0-.69-.42,1.618,1.618,0,0,0-.18-.1c-.24-.11-.49-.22-.75-.31a6.991,6.991,0,0,0-.79-.19l-.2-.03a5.69,5.69,0,0,0-.83-.07,5.554,5.554,0,0,0-.82.07l-.2.03a6.508,6.508,0,0,0-.79.19h-.01a7.038,7.038,0,0,0-.75.32.556.556,0,0,0-.17.09,4.285,4.285,0,0,0-.68.42h-.02a3.811,3.811,0,0,1-.41-1.74,3.855,3.855,0,0,1,7.71,0A3.819,3.819,0,0,1,53.77,38.05Z"/>
</g>
</svg>