<!DOCTYPE svg PUBLIC "-//W3C//DTD SVG 1.1//EN" "http://www.w3.org/Graphics/SVG/1.1/DTD/svg11.dtd">
<!-- Uploaded to: SVG Repo, www.svgrepo.com, Transformed by: SVG Repo Mixer Tools -->
<svg width="800px" height="800px" viewBox="0 0 1024 1024" fill="#000000" class="icon" version="1.1" xmlns="http://www.w3.org/2000/svg">
<g id="SVGRepo_bgCarrier" stroke-width="0"/>
<g id="SVGRepo_tracerCarrier" stroke-linecap="round" stroke-linejoin="round" stroke="#CCCCCC" stroke-width="43.007999999999996">
<path d="M1007.938 1023.934H815.96c-4.422 0-8-3.578-8-8v-26.418c0-19.608 12.89-26.074 24.964-30.59 13.688-5.14 28.324-13.608 31.214-17.17a8 8 0 0 1 15.844 1.546c0 13.966-31.714 26.95-41.434 30.59-12.574 4.718-14.59 7.874-14.59 15.624v18.42h175.976v-18.42c0-7.75-2.016-10.904-14.61-15.608-6.918-2.594-41.382-16.248-41.382-30.606a7.994 7.994 0 0 1 7.996-7.998 8.02 8.02 0 0 1 7.86 6.452c2.86 3.578 17.484 12.044 31.136 17.17 12.094 4.516 24.996 10.966 24.996 30.59v26.418a7.988 7.988 0 0 1-7.992 8z" fill=""/>
<path d="M911.95 959.942c-27.34 0-63.96-37.918-63.96-76.678 0-38.37 27.496-67.302 63.96-67.302 37.074 0 63.992 28.308 63.992 67.302 0 38.76-36.638 76.678-63.992 76.678z m0-127.984c-27.792 0-47.964 21.576-47.964 51.306 0 32.59 32.168 60.68 47.964 60.68 15.808 0 47.992-28.09 47.992-60.68 0-29.73-20.184-51.306-47.992-51.306z" fill=""/>
<path d="M951.942 951.3a7.992 7.992 0 0 1-7.996-7.998v-17.138a7.992 7.992 0 0 1 7.996-7.998c4.422 0 8 3.576 8 7.998v17.138a7.994 7.994 0 0 1-8 7.998zM871.984 951.3c-4.422 0-8-3.576-8-7.998v-17.138c0-4.422 3.578-7.998 8-7.998s8 3.576 8 7.998v17.138a7.994 7.994 0 0 1-8 7.998zM208.04 1023.934H16.066c-4.422 0-8-3.578-8-8v-26.418c0-19.608 12.896-26.074 24.99-30.59 13.67-5.14 28.31-13.608 31.184-17.17a8.006 8.006 0 0 1 7.85-6.452c4.422 0 8 3.578 8 7.998 0 13.982-31.708 26.95-41.416 30.59-12.592 4.718-14.608 7.888-14.608 15.624v18.42h175.978v-18.42c0-7.75-2.016-10.904-14.608-15.608-6.92-2.594-41.37-16.248-41.37-30.606a7.994 7.994 0 0 1 8-7.998 8.006 8.006 0 0 1 7.85 6.466c2.868 3.562 17.482 12.03 31.128 17.154 12.084 4.516 24.998 10.966 24.998 30.59v26.418a8 8 0 0 1-8.002 8.002z" fill=""/>
<path d="M112.068 959.942c-27.34 0-63.976-37.918-63.976-76.678 0-38.37 27.504-67.302 63.976-67.302 37.082 0 63.992 28.308 63.992 67.302 0 38.76-36.644 76.678-63.992 76.678z m0-127.984c-27.8 0-47.978 21.576-47.978 51.306 0 32.59 32.182 60.68 47.978 60.68 15.802 0 47.994-28.09 47.994-60.68 0-29.73-20.186-51.306-47.994-51.306z" fill=""/>
<path d="M152.064 951.3c-4.422 0-8-3.576-8-7.998v-17.138a7.994 7.994 0 0 1 8-7.998 7.994 7.994 0 0 1 7.998 7.998v17.138a7.994 7.994 0 0 1-7.998 7.998zM72.088 951.3c-4.422 0-8-3.576-8-7.998v-17.138c0-4.422 3.578-7.998 8-7.998s8 3.576 8 7.998v17.138a7.994 7.994 0 0 1-8 7.998zM1007.938 208.04H815.96c-4.422 0-8-3.578-8-8V173.622c0-19.606 12.89-26.074 24.964-30.59 13.688-5.14 28.324-13.608 31.214-17.168a8 8 0 0 1 15.844 1.546c0 13.966-31.714 26.95-41.434 30.59-12.574 4.718-14.59 7.876-14.59 15.624v18.42h175.976v-18.42c0-7.748-2.016-10.904-14.61-15.608-6.918-2.592-41.382-16.248-41.382-30.606a7.994 7.994 0 0 1 7.996-7.998 8.02 8.02 0 0 1 7.86 6.452c2.86 3.578 17.484 12.044 31.136 17.168 12.094 4.516 24.996 10.968 24.996 30.59v26.418c0.004 4.42-3.574 8-7.992 8z" fill=""/>
<path d="M911.95 144.046c-27.34 0-63.96-37.916-63.96-76.678 0-38.37 27.496-67.302 63.96-67.302 37.074 0 63.992 28.308 63.992 67.302 0 38.762-36.638 76.678-63.992 76.678z m0-127.982c-27.792 0-47.964 21.574-47.964 51.304 0 32.59 32.168 60.68 47.964 60.68 15.808 0 47.992-28.09 47.992-60.68 0-29.73-20.184-51.304-47.992-51.304z" fill=""/>
<path d="M951.942 135.408a7.994 7.994 0 0 1-7.996-8v-17.138c0-4.42 3.578-8 7.996-8 4.422 0 8 3.578 8 8v17.138c0 4.422-3.578 8-8 8zM871.984 135.408c-4.422 0-8-3.578-8-8v-17.138c0-4.42 3.578-8 8-8s8 3.578 8 8v17.138c0 4.422-3.578 8-8 8zM208.04 208.04H16.066c-4.422 0-8-3.578-8-8V173.622c0-19.606 12.896-26.074 24.99-30.59 13.67-5.14 28.31-13.608 31.184-17.168a8.006 8.006 0 0 1 7.85-6.452c4.422 0 8 3.578 8 7.998 0 13.982-31.708 26.95-41.416 30.59-12.592 4.718-14.608 7.89-14.608 15.624v18.42h175.978v-18.42c0-7.748-2.016-10.904-14.608-15.608-6.92-2.592-41.37-16.248-41.37-30.606a7.994 7.994 0 0 1 8-7.998 8.006 8.006 0 0 1 7.85 6.468c2.868 3.562 17.482 12.03 31.128 17.154 12.084 4.516 24.998 10.968 24.998 30.59v26.418a8 8 0 0 1-8.002 7.998z" fill=""/>
<path d="M112.068 144.046c-27.34 0-63.976-37.916-63.976-76.678C48.092 28.998 75.596 0.066 112.068 0.066c37.082 0 63.992 28.308 63.992 67.302 0 38.762-36.644 76.678-63.992 76.678z m0-127.982c-27.8 0-47.978 21.574-47.978 51.304 0 32.59 32.182 60.68 47.978 60.68 15.802 0 47.994-28.09 47.994-60.68 0-29.73-20.186-51.304-47.994-51.304z" fill=""/>
<path d="M152.064 135.408c-4.422 0-8-3.578-8-8v-17.138c0-4.42 3.578-8 8-8a7.994 7.994 0 0 1 7.998 8v17.138c0 4.422-3.578 8-7.998 8zM72.088 135.408c-4.422 0-8-3.578-8-8v-17.138c0-4.42 3.578-8 8-8s8 3.578 8 8v17.138c0 4.422-3.578 8-8 8z" fill=""/>
<path d="M320.042 735.892c-4.42 0-8-3.578-8-7.998v-53.306c0-31.184 16.568-43.478 45.198-54.182 14.99-5.592 37.042-14.042 55.344-22.778a7.99 7.99 0 0 1 10.664 3.766c1.906 4 0.218 8.764-3.774 10.67-18.874 9.014-41.362 17.638-56.64 23.342-27.318 10.202-34.792 18.622-34.792 39.182v53.306a7.998 7.998 0 0 1-8 7.998zM703.976 735.892c-4.422 0-8-3.578-8-7.998v-53.306c0-20.56-7.484-28.98-34.792-39.182-15.214-5.688-37.652-14.296-56.68-23.404a8.004 8.004 0 0 1-3.766-10.67c1.906-4.016 6.704-5.656 10.672-3.766 18.45 8.844 40.43 17.28 55.368 22.84 28.622 10.704 45.196 22.998 45.196 54.182v53.306a7.994 7.994 0 0 1-7.998 7.998zM511.642 607.91c-45.206 0-119.984-71.946-119.984-153.918 0-4.42 3.578-8 7.998-8 4.422 0 8 3.578 8 8 0 71.116 64.874 137.918 103.986 137.918 39.104 0 103.972-66.802 103.972-137.918 0-4.42 3.578-8 7.996-8 4.422 0 8 3.578 8 8 0 81.972-74.77 153.918-119.968 153.918zM623.14 445.742a8 8 0 0 1-6.652-3.562l-28.45-42.666c-12.734 4.61-43.262 14.232-76.398 14.232-33.27 0-64.468-9.686-77.358-14.28l-28.472 42.714a7.96 7.96 0 0 1-8.618 3.312 7.992 7.992 0 0 1-6.006-6.998c-4.188-44.824 5.46-80.474 28.676-105.97 33.442-36.714 87.684-44.416 127.304-44.416 26.372 0 45.446 3.39 46.242 3.532 3.5 0.624 6.156 3.5 6.532 7.03s-1.624 6.89-4.906 8.248c-7.152 2.938-11.84 7.14-13.964 12.5-2.078 5.234-1.516 10.828-0.64 14.67 8.156 0.328 24.59 2.952 37.106 17.56 15.214 17.794 19.762 47.166 13.512 87.332a8.016 8.016 0 0 1-6.188 6.578 8.346 8.346 0 0 1-1.72 0.184z m-31.996-63.992c2.61 0 5.14 1.28 6.656 3.562l19.734 29.606c1.234-23.964-2.89-42.026-12.156-52.868-8.954-10.436-20.684-12-26.886-12-1.562 0-2.562 0.11-2.766 0.124-3.484 0.422-6.906-1.422-8.36-4.608-0.296-0.656-7.344-16.452-1.172-32.042a34 34 0 0 1 4.812-8.452c-34.028-2.764-102.532-2.17-139.318 38.23-15.788 17.326-24.27 40.556-25.34 69.224l18.146-27.214a7.96 7.96 0 0 1 9.694-2.968c0.376 0.156 38.05 15.404 77.452 15.404 39.464 0 76.038-15.216 76.398-15.374a8.086 8.086 0 0 1 3.106-0.624z" fill=""/>
<path d="M623.61 461.99a7.994 7.994 0 0 1-7.996-8v-16.248c0-4.422 3.578-8 7.996-8 4.422 0 8 3.578 8 8v16.248c0 4.422-3.578 8-8 8zM399.656 461.99a7.994 7.994 0 0 1-7.998-8v-16.248c0-4.422 3.578-8 7.998-8 4.422 0 8 3.578 8 8v16.248c0 4.422-3.578 8-8 8zM480.27 639.904a8.026 8.026 0 0 1-5.656-2.342l-47.994-47.996a8 8 0 0 1 11.312-11.31l43.932 43.932 27.066-13.452c3.938-1.936 8.756-0.344 10.718 3.61a8.002 8.002 0 0 1-3.61 10.732l-32.214 15.998a7.93 7.93 0 0 1-3.554 0.828z" fill=""/>
<path d="M544.246 639.904a8.038 8.038 0 0 1-3.562-0.828l-32.222-15.998a8.004 8.004 0 0 1-3.61-10.732c1.96-3.954 6.774-5.544 10.718-3.61l27.082 13.452 43.934-43.932a7.996 7.996 0 1 1 11.308 11.31l-47.992 47.996a8 8 0 0 1-5.656 2.342zM512.86 655.902a7.976 7.976 0 0 1-5.656-2.344l-15.998-15.996a8 8 0 1 1 11.312-11.312l15.998 15.998a7.996 7.996 0 0 1-5.656 13.654z" fill=""/>
<path d="M512.86 655.902a7.996 7.996 0 0 1-5.656-13.654l16-15.998a8 8 0 0 1 11.308 11.312l-15.996 15.996a7.968 7.968 0 0 1-5.656 2.344z" fill=""/>
<path d="M496.87 719.894a8.004 8.004 0 0 1-7.96-8.89l8-71.99c0.492-4.374 4.57-7.42 8.834-7.06a8.004 8.004 0 0 1 7.07 8.842l-8 71.99a8.006 8.006 0 0 1-7.944 7.108z" fill=""/>
<path d="M528.844 719.894a8.006 8.006 0 0 1-7.938-7.11l-8-71.99a8 8 0 0 1 7.07-8.842c4.516-0.376 8.352 2.688 8.836 7.06l7.996 71.99a8.01 8.01 0 0 1-7.964 8.892z" fill=""/>
<path d="M703.976 735.892H320.042c-4.42 0-8-3.578-8-7.998 0-4.422 3.578-8 8-8h383.936a7.992 7.992 0 0 1 7.996 8 7.994 7.994 0 0 1-7.998 7.998z" fill=""/>
<path d="M207.9 847.958a8.008 8.008 0 0 1-5.648-2.328 8.018 8.018 0 0 1-0.016-11.328l79.772-79.988a8.024 8.024 0 0 1 11.31-0.016 8.016 8.016 0 0 1 0.016 11.326l-79.77 79.99a7.984 7.984 0 0 1-5.664 2.344z" fill=""/>
<path d="M224.038 847.958h-16.138c-4.422 0-8-3.578-8-8s3.578-8 8-8h16.138c4.42 0 7.998 3.578 7.998 8s-3.578 8-7.998 8z" fill=""/>
<path d="M208.04 847.738c-4.422 0-8-3.578-8-8v-15.78c0-4.422 3.578-7.998 8-7.998s8 3.576 8 7.998v15.78c0 4.422-3.578 8-8 8z" fill=""/>
<path d="M815.96 847.958a8.012 8.012 0 0 1-5.672-2.344l-79.77-79.99a8.026 8.026 0 0 1 0.016-11.326c3.124-3.094 8.204-3.11 11.324 0.016l79.774 79.988a8.028 8.028 0 0 1-0.016 11.328 8.024 8.024 0 0 1-5.656 2.328z" fill=""/>
<path d="M815.96 847.958h-16.122c-4.422 0-8-3.578-8-8s3.578-8 8-8h16.122c4.422 0 8 3.578 8 8s-3.578 8-8 8z" fill=""/>
<path d="M815.836 847.738c-4.422 0-8-3.578-8-8v-15.78c0-4.422 3.578-7.998 8-7.998s8 3.576 8 7.998v15.78c0 4.422-3.578 8-8 8z" fill=""/>
<path d="M287.67 336.022a7.98 7.98 0 0 1-5.664-2.344l-79.772-79.99a8.016 8.016 0 0 1 0.016-11.326 8.024 8.024 0 0 1 11.312 0.016l79.77 79.988a8.014 8.014 0 0 1-0.016 11.328 7.992 7.992 0 0 1-5.646 2.328z" fill=""/>
<path d="M224.038 256.034h-16.138c-4.422 0-8-3.578-8-8a7.994 7.994 0 0 1 8-7.998h16.138a7.994 7.994 0 0 1 7.998 7.998c0 4.422-3.578 8-7.998 8z" fill=""/>
<path d="M208.04 272.032c-4.422 0-8-3.578-8-8v-15.78c0-4.42 3.578-7.998 8-7.998s8 3.578 8 7.998v15.78c0 4.422-3.578 8-8 8z" fill=""/>
<path d="M736.192 336.022a8.028 8.028 0 0 1-5.656-2.328 8.032 8.032 0 0 1-0.016-11.328l79.77-79.988c3.124-3.124 8.204-3.11 11.328-0.016a8.03 8.03 0 0 1 0.016 11.326l-79.774 79.99a8 8 0 0 1-5.668 2.344z" fill=""/>
<path d="M815.96 256.034h-16.122c-4.422 0-8-3.578-8-8a7.994 7.994 0 0 1 8-7.998h16.122c4.422 0 8 3.578 8 7.998 0 4.422-3.578 8-8 8z" fill=""/>
<path d="M815.836 272.032c-4.422 0-8-3.578-8-8v-15.78c0-4.42 3.578-7.998 8-7.998s8 3.578 8 7.998v15.78c0 4.422-3.578 8-8 8z" fill=""/>
<path d="M672.95 96.13a7.974 7.974 0 0 1-5.656-2.342l-11.406-11.39a8 8 0 0 1 11.312-11.31l11.406 11.388a8.002 8.002 0 0 1-5.656 13.654z" fill=""/>
<path d="M661.542 107.364a8 8 0 0 1-5.656-13.654l11.156-11.156a8 8 0 1 1 11.312 11.312l-11.156 11.156a7.97 7.97 0 0 1-5.656 2.342zM363.41 107.692a7.978 7.978 0 0 1-5.656-2.342l-11.388-11.39a8 8 0 0 1 11.31-11.312l11.388 11.39a8 8 0 0 1-5.654 13.654z" fill=""/>
<path d="M352.254 96.224a8 8 0 0 1-5.654-13.654l11.154-11.154a7.996 7.996 0 1 1 11.31 11.31l-11.154 11.156a7.97 7.97 0 0 1-5.656 2.342z" fill=""/>
<path d="M672.95 96.302H352.02a7.994 7.994 0 0 1-7.998-7.998c0-4.422 3.578-8 7.998-8h320.928a7.992 7.992 0 0 1 7.996 8 7.988 7.988 0 0 1-7.994 7.998z" fill=""/>
<path d="M672.95 943.88a7.976 7.976 0 0 1-5.656-2.344l-11.406-11.404a8 8 0 0 1 11.312-11.31l11.406 11.404a8 8 0 0 1-5.656 13.654z" fill=""/>
<path d="M661.542 955.098a7.996 7.996 0 0 1-5.656-13.654l11.156-11.154a8 8 0 0 1 11.312 11.31l-11.156 11.154a7.974 7.974 0 0 1-5.656 2.344zM363.41 955.442a8 8 0 0 1-5.664-2.344l-11.388-11.404a8.006 8.006 0 0 1 11.326-11.31l11.388 11.404a8 8 0 0 1-5.662 13.654z" fill=""/>
<path d="M352.254 943.974a7.996 7.996 0 0 1-5.654-13.654l11.154-11.154a7.996 7.996 0 1 1 11.31 11.31l-11.154 11.154a7.964 7.964 0 0 1-5.656 2.344z" fill=""/>
<path d="M672.95 944.038H352.02a7.994 7.994 0 0 1-7.998-7.998c0-4.422 3.578-8 7.998-8h320.928a7.992 7.992 0 0 1 7.996 8 7.99 7.99 0 0 1-7.994 7.998z" fill=""/>
<path d="M912.012 672.462a7.996 7.996 0 0 1-5.656-13.654l11.406-11.388a7.996 7.996 0 1 1 11.308 11.31l-11.402 11.388a7.968 7.968 0 0 1-5.656 2.344z" fill=""/>
<path d="M911.95 672.228a7.976 7.976 0 0 1-5.656-2.344l-11.156-11.154a8 8 0 0 1 11.312-11.31l11.156 11.154a8 8 0 0 1-5.656 13.654zM900.45 378.922a8 8 0 0 1-5.656-13.654l11.406-11.39a8 8 0 1 1 11.312 11.312l-11.406 11.39a7.978 7.978 0 0 1-5.656 2.342z" fill=""/>
<path d="M923.07 378.922a7.966 7.966 0 0 1-5.652-2.342l-11.156-11.156a8 8 0 1 1 11.312-11.312l11.152 11.156a8 8 0 0 1-5.656 13.654z" fill=""/>
<path d="M911.856 672.462c-4.422 0-8-3.578-8-7.998V359.536c0-4.422 3.578-8 8-8s8 3.578 8 8v304.93a7.994 7.994 0 0 1-8 7.996z" fill=""/>
<path d="M112.13 672.462a8 8 0 0 1-5.654-13.654l11.404-11.388a8.006 8.006 0 0 1 11.318 0 8 8 0 0 1-0.008 11.31l-11.404 11.388a7.968 7.968 0 0 1-5.656 2.344z" fill=""/>
<path d="M112.068 672.228a7.972 7.972 0 0 1-5.654-2.344l-11.156-11.154a8 8 0 0 1 11.312-11.31l11.154 11.154a7.996 7.996 0 0 1-5.656 13.654zM100.57 378.922a7.992 7.992 0 0 1-5.656-13.654l11.406-11.39a8.006 8.006 0 0 1 11.318 0 8.002 8.002 0 0 1-0.008 11.312l-11.404 11.39a7.974 7.974 0 0 1-5.656 2.342z" fill=""/>
<path d="M123.192 378.922a7.978 7.978 0 0 1-5.656-2.342l-11.154-11.156a8 8 0 0 1 11.31-11.312l11.154 11.156a8 8 0 0 1-5.654 13.654z" fill=""/>
<path d="M111.974 672.462a7.994 7.994 0 0 1-7.998-7.998V359.536c0-4.422 3.578-8 7.998-8 4.422 0 8 3.578 8 8v304.93a7.994 7.994 0 0 1-8 7.996z" fill=""/>
</g>
<g id="SVGRepo_iconCarrier">
<path d="M1007.938 1023.934H815.96c-4.422 0-8-3.578-8-8v-26.418c0-19.608 12.89-26.074 24.964-30.59 13.688-5.14 28.324-13.608 31.214-17.17a8 8 0 0 1 15.844 1.546c0 13.966-31.714 26.95-41.434 30.59-12.574 4.718-14.59 7.874-14.59 15.624v18.42h175.976v-18.42c0-7.75-2.016-10.904-14.61-15.608-6.918-2.594-41.382-16.248-41.382-30.606a7.994 7.994 0 0 1 7.996-7.998 8.02 8.02 0 0 1 7.86 6.452c2.86 3.578 17.484 12.044 31.136 17.17 12.094 4.516 24.996 10.966 24.996 30.59v26.418a7.988 7.988 0 0 1-7.992 8z" fill=""/>
<path d="M911.95 959.942c-27.34 0-63.96-37.918-63.96-76.678 0-38.37 27.496-67.302 63.96-67.302 37.074 0 63.992 28.308 63.992 67.302 0 38.76-36.638 76.678-63.992 76.678z m0-127.984c-27.792 0-47.964 21.576-47.964 51.306 0 32.59 32.168 60.68 47.964 60.68 15.808 0 47.992-28.09 47.992-60.68 0-29.73-20.184-51.306-47.992-51.306z" fill=""/>
<path d="M951.942 951.3a7.992 7.992 0 0 1-7.996-7.998v-17.138a7.992 7.992 0 0 1 7.996-7.998c4.422 0 8 3.576 8 7.998v17.138a7.994 7.994 0 0 1-8 7.998zM871.984 951.3c-4.422 0-8-3.576-8-7.998v-17.138c0-4.422 3.578-7.998 8-7.998s8 3.576 8 7.998v17.138a7.994 7.994 0 0 1-8 7.998zM208.04 1023.934H16.066c-4.422 0-8-3.578-8-8v-26.418c0-19.608 12.896-26.074 24.99-30.59 13.67-5.14 28.31-13.608 31.184-17.17a8.006 8.006 0 0 1 7.85-6.452c4.422 0 8 3.578 8 7.998 0 13.982-31.708 26.95-41.416 30.59-12.592 4.718-14.608 7.888-14.608 15.624v18.42h175.978v-18.42c0-7.75-2.016-10.904-14.608-15.608-6.92-2.594-41.37-16.248-41.37-30.606a7.994 7.994 0 0 1 8-7.998 8.006 8.006 0 0 1 7.85 6.466c2.868 3.562 17.482 12.03 31.128 17.154 12.084 4.516 24.998 10.966 24.998 30.59v26.418a8 8 0 0 1-8.002 8.002z" fill=""/>
<path d="M112.068 959.942c-27.34 0-63.976-37.918-63.976-76.678 0-38.37 27.504-67.302 63.976-67.302 37.082 0 63.992 28.308 63.992 67.302 0 38.76-36.644 76.678-63.992 76.678z m0-127.984c-27.8 0-47.978 21.576-47.978 51.306 0 32.59 32.182 60.68 47.978 60.68 15.802 0 47.994-28.09 47.994-60.68 0-29.73-20.186-51.306-47.994-51.306z" fill=""/>
<path d="M152.064 951.3c-4.422 0-8-3.576-8-7.998v-17.138a7.994 7.994 0 0 1 8-7.998 7.994 7.994 0 0 1 7.998 7.998v17.138a7.994 7.994 0 0 1-7.998 7.998zM72.088 951.3c-4.422 0-8-3.576-8-7.998v-17.138c0-4.422 3.578-7.998 8-7.998s8 3.576 8 7.998v17.138a7.994 7.994 0 0 1-8 7.998zM1007.938 208.04H815.96c-4.422 0-8-3.578-8-8V173.622c0-19.606 12.89-26.074 24.964-30.59 13.688-5.14 28.324-13.608 31.214-17.168a8 8 0 0 1 15.844 1.546c0 13.966-31.714 26.95-41.434 30.59-12.574 4.718-14.59 7.876-14.59 15.624v18.42h175.976v-18.42c0-7.748-2.016-10.904-14.61-15.608-6.918-2.592-41.382-16.248-41.382-30.606a7.994 7.994 0 0 1 7.996-7.998 8.02 8.02 0 0 1 7.86 6.452c2.86 3.578 17.484 12.044 31.136 17.168 12.094 4.516 24.996 10.968 24.996 30.59v26.418c0.004 4.42-3.574 8-7.992 8z" fill=""/>
<path d="M911.95 144.046c-27.34 0-63.96-37.916-63.96-76.678 0-38.37 27.496-67.302 63.96-67.302 37.074 0 63.992 28.308 63.992 67.302 0 38.762-36.638 76.678-63.992 76.678z m0-127.982c-27.792 0-47.964 21.574-47.964 51.304 0 32.59 32.168 60.68 47.964 60.68 15.808 0 47.992-28.09 47.992-60.68 0-29.73-20.184-51.304-47.992-51.304z" fill=""/>
<path d="M951.942 135.408a7.994 7.994 0 0 1-7.996-8v-17.138c0-4.42 3.578-8 7.996-8 4.422 0 8 3.578 8 8v17.138c0 4.422-3.578 8-8 8zM871.984 135.408c-4.422 0-8-3.578-8-8v-17.138c0-4.42 3.578-8 8-8s8 3.578 8 8v17.138c0 4.422-3.578 8-8 8zM208.04 208.04H16.066c-4.422 0-8-3.578-8-8V173.622c0-19.606 12.896-26.074 24.99-30.59 13.67-5.14 28.31-13.608 31.184-17.168a8.006 8.006 0 0 1 7.85-6.452c4.422 0 8 3.578 8 7.998 0 13.982-31.708 26.95-41.416 30.59-12.592 4.718-14.608 7.89-14.608 15.624v18.42h175.978v-18.42c0-7.748-2.016-10.904-14.608-15.608-6.92-2.592-41.37-16.248-41.37-30.606a7.994 7.994 0 0 1 8-7.998 8.006 8.006 0 0 1 7.85 6.468c2.868 3.562 17.482 12.03 31.128 17.154 12.084 4.516 24.998 10.968 24.998 30.59v26.418a8 8 0 0 1-8.002 7.998z" fill=""/>
<path d="M112.068 144.046c-27.34 0-63.976-37.916-63.976-76.678C48.092 28.998 75.596 0.066 112.068 0.066c37.082 0 63.992 28.308 63.992 67.302 0 38.762-36.644 76.678-63.992 76.678z m0-127.982c-27.8 0-47.978 21.574-47.978 51.304 0 32.59 32.182 60.68 47.978 60.68 15.802 0 47.994-28.09 47.994-60.68 0-29.73-20.186-51.304-47.994-51.304z" fill=""/>
<path d="M152.064 135.408c-4.422 0-8-3.578-8-8v-17.138c0-4.42 3.578-8 8-8a7.994 7.994 0 0 1 7.998 8v17.138c0 4.422-3.578 8-7.998 8zM72.088 135.408c-4.422 0-8-3.578-8-8v-17.138c0-4.42 3.578-8 8-8s8 3.578 8 8v17.138c0 4.422-3.578 8-8 8z" fill=""/>
<path d="M320.042 735.892c-4.42 0-8-3.578-8-7.998v-53.306c0-31.184 16.568-43.478 45.198-54.182 14.99-5.592 37.042-14.042 55.344-22.778a7.99 7.99 0 0 1 10.664 3.766c1.906 4 0.218 8.764-3.774 10.67-18.874 9.014-41.362 17.638-56.64 23.342-27.318 10.202-34.792 18.622-34.792 39.182v53.306a7.998 7.998 0 0 1-8 7.998zM703.976 735.892c-4.422 0-8-3.578-8-7.998v-53.306c0-20.56-7.484-28.98-34.792-39.182-15.214-5.688-37.652-14.296-56.68-23.404a8.004 8.004 0 0 1-3.766-10.67c1.906-4.016 6.704-5.656 10.672-3.766 18.45 8.844 40.43 17.28 55.368 22.84 28.622 10.704 45.196 22.998 45.196 54.182v53.306a7.994 7.994 0 0 1-7.998 7.998zM511.642 607.91c-45.206 0-119.984-71.946-119.984-153.918 0-4.42 3.578-8 7.998-8 4.422 0 8 3.578 8 8 0 71.116 64.874 137.918 103.986 137.918 39.104 0 103.972-66.802 103.972-137.918 0-4.42 3.578-8 7.996-8 4.422 0 8 3.578 8 8 0 81.972-74.77 153.918-119.968 153.918zM623.14 445.742a8 8 0 0 1-6.652-3.562l-28.45-42.666c-12.734 4.61-43.262 14.232-76.398 14.232-33.27 0-64.468-9.686-77.358-14.28l-28.472 42.714a7.96 7.96 0 0 1-8.618 3.312 7.992 7.992 0 0 1-6.006-6.998c-4.188-44.824 5.46-80.474 28.676-105.97 33.442-36.714 87.684-44.416 127.304-44.416 26.372 0 45.446 3.39 46.242 3.532 3.5 0.624 6.156 3.5 6.532 7.03s-1.624 6.89-4.906 8.248c-7.152 2.938-11.84 7.14-13.964 12.5-2.078 5.234-1.516 10.828-0.64 14.67 8.156 0.328 24.59 2.952 37.106 17.56 15.214 17.794 19.762 47.166 13.512 87.332a8.016 8.016 0 0 1-6.188 6.578 8.346 8.346 0 0 1-1.72 0.184z m-31.996-63.992c2.61 0 5.14 1.28 6.656 3.562l19.734 29.606c1.234-23.964-2.89-42.026-12.156-52.868-8.954-10.436-20.684-12-26.886-12-1.562 0-2.562 0.11-2.766 0.124-3.484 0.422-6.906-1.422-8.36-4.608-0.296-0.656-7.344-16.452-1.172-32.042a34 34 0 0 1 4.812-8.452c-34.028-2.764-102.532-2.17-139.318 38.23-15.788 17.326-24.27 40.556-25.34 69.224l18.146-27.214a7.96 7.96 0 0 1 9.694-2.968c0.376 0.156 38.05 15.404 77.452 15.404 39.464 0 76.038-15.216 76.398-15.374a8.086 8.086 0 0 1 3.106-0.624z" fill=""/>
<path d="M623.61 461.99a7.994 7.994 0 0 1-7.996-8v-16.248c0-4.422 3.578-8 7.996-8 4.422 0 8 3.578 8 8v16.248c0 4.422-3.578 8-8 8zM399.656 461.99a7.994 7.994 0 0 1-7.998-8v-16.248c0-4.422 3.578-8 7.998-8 4.422 0 8 3.578 8 8v16.248c0 4.422-3.578 8-8 8zM480.27 639.904a8.026 8.026 0 0 1-5.656-2.342l-47.994-47.996a8 8 0 0 1 11.312-11.31l43.932 43.932 27.066-13.452c3.938-1.936 8.756-0.344 10.718 3.61a8.002 8.002 0 0 1-3.61 10.732l-32.214 15.998a7.93 7.93 0 0 1-3.554 0.828z" fill=""/>
<path d="M544.246 639.904a8.038 8.038 0 0 1-3.562-0.828l-32.222-15.998a8.004 8.004 0 0 1-3.61-10.732c1.96-3.954 6.774-5.544 10.718-3.61l27.082 13.452 43.934-43.932a7.996 7.996 0 1 1 11.308 11.31l-47.992 47.996a8 8 0 0 1-5.656 2.342zM512.86 655.902a7.976 7.976 0 0 1-5.656-2.344l-15.998-15.996a8 8 0 1 1 11.312-11.312l15.998 15.998a7.996 7.996 0 0 1-5.656 13.654z" fill=""/>
<path d="M512.86 655.902a7.996 7.996 0 0 1-5.656-13.654l16-15.998a8 8 0 0 1 11.308 11.312l-15.996 15.996a7.968 7.968 0 0 1-5.656 2.344z" fill=""/>
<path d="M496.87 719.894a8.004 8.004 0 0 1-7.96-8.89l8-71.99c0.492-4.374 4.57-7.42 8.834-7.06a8.004 8.004 0 0 1 7.07 8.842l-8 71.99a8.006 8.006 0 0 1-7.944 7.108z" fill=""/>
<path d="M528.844 719.894a8.006 8.006 0 0 1-7.938-7.11l-8-71.99a8 8 0 0 1 7.07-8.842c4.516-0.376 8.352 2.688 8.836 7.06l7.996 71.99a8.01 8.01 0 0 1-7.964 8.892z" fill=""/>
<path d="M703.976 735.892H320.042c-4.42 0-8-3.578-8-7.998 0-4.422 3.578-8 8-8h383.936a7.992 7.992 0 0 1 7.996 8 7.994 7.994 0 0 1-7.998 7.998z" fill=""/>
<path d="M207.9 847.958a8.008 8.008 0 0 1-5.648-2.328 8.018 8.018 0 0 1-0.016-11.328l79.772-79.988a8.024 8.024 0 0 1 11.31-0.016 8.016 8.016 0 0 1 0.016 11.326l-79.77 79.99a7.984 7.984 0 0 1-5.664 2.344z" fill=""/>
<path d="M224.038 847.958h-16.138c-4.422 0-8-3.578-8-8s3.578-8 8-8h16.138c4.42 0 7.998 3.578 7.998 8s-3.578 8-7.998 8z" fill=""/>
<path d="M208.04 847.738c-4.422 0-8-3.578-8-8v-15.78c0-4.422 3.578-7.998 8-7.998s8 3.576 8 7.998v15.78c0 4.422-3.578 8-8 8z" fill=""/>
<path d="M815.96 847.958a8.012 8.012 0 0 1-5.672-2.344l-79.77-79.99a8.026 8.026 0 0 1 0.016-11.326c3.124-3.094 8.204-3.11 11.324 0.016l79.774 79.988a8.028 8.028 0 0 1-0.016 11.328 8.024 8.024 0 0 1-5.656 2.328z" fill=""/>
<path d="M815.96 847.958h-16.122c-4.422 0-8-3.578-8-8s3.578-8 8-8h16.122c4.422 0 8 3.578 8 8s-3.578 8-8 8z" fill=""/>
<path d="M815.836 847.738c-4.422 0-8-3.578-8-8v-15.78c0-4.422 3.578-7.998 8-7.998s8 3.576 8 7.998v15.78c0 4.422-3.578 8-8 8z" fill=""/>
<path d="M287.67 336.022a7.98 7.98 0 0 1-5.664-2.344l-79.772-79.99a8.016 8.016 0 0 1 0.016-11.326 8.024 8.024 0 0 1 11.312 0.016l79.77 79.988a8.014 8.014 0 0 1-0.016 11.328 7.992 7.992 0 0 1-5.646 2.328z" fill=""/>
<path d="M224.038 256.034h-16.138c-4.422 0-8-3.578-8-8a7.994 7.994 0 0 1 8-7.998h16.138a7.994 7.994 0 0 1 7.998 7.998c0 4.422-3.578 8-7.998 8z" fill=""/>
<path d="M208.04 272.032c-4.422 0-8-3.578-8-8v-15.78c0-4.42 3.578-7.998 8-7.998s8 3.578 8 7.998v15.78c0 4.422-3.578 8-8 8z" fill=""/>
<path d="M736.192 336.022a8.028 8.028 0 0 1-5.656-2.328 8.032 8.032 0 0 1-0.016-11.328l79.77-79.988c3.124-3.124 8.204-3.11 11.328-0.016a8.03 8.03 0 0 1 0.016 11.326l-79.774 79.99a8 8 0 0 1-5.668 2.344z" fill=""/>
<path d="M815.96 256.034h-16.122c-4.422 0-8-3.578-8-8a7.994 7.994 0 0 1 8-7.998h16.122c4.422 0 8 3.578 8 7.998 0 4.422-3.578 8-8 8z" fill=""/>
<path d="M815.836 272.032c-4.422 0-8-3.578-8-8v-15.78c0-4.42 3.578-7.998 8-7.998s8 3.578 8 7.998v15.78c0 4.422-3.578 8-8 8z" fill=""/>
<path d="M672.95 96.13a7.974 7.974 0 0 1-5.656-2.342l-11.406-11.39a8 8 0 0 1 11.312-11.31l11.406 11.388a8.002 8.002 0 0 1-5.656 13.654z" fill=""/>
<path d="M661.542 107.364a8 8 0 0 1-5.656-13.654l11.156-11.156a8 8 0 1 1 11.312 11.312l-11.156 11.156a7.97 7.97 0 0 1-5.656 2.342zM363.41 107.692a7.978 7.978 0 0 1-5.656-2.342l-11.388-11.39a8 8 0 0 1 11.31-11.312l11.388 11.39a8 8 0 0 1-5.654 13.654z" fill=""/>
<path d="M352.254 96.224a8 8 0 0 1-5.654-13.654l11.154-11.154a7.996 7.996 0 1 1 11.31 11.31l-11.154 11.156a7.97 7.97 0 0 1-5.656 2.342z" fill=""/>
<path d="M672.95 96.302H352.02a7.994 7.994 0 0 1-7.998-7.998c0-4.422 3.578-8 7.998-8h320.928a7.992 7.992 0 0 1 7.996 8 7.988 7.988 0 0 1-7.994 7.998z" fill=""/>
<path d="M672.95 943.88a7.976 7.976 0 0 1-5.656-2.344l-11.406-11.404a8 8 0 0 1 11.312-11.31l11.406 11.404a8 8 0 0 1-5.656 13.654z" fill=""/>
<path d="M661.542 955.098a7.996 7.996 0 0 1-5.656-13.654l11.156-11.154a8 8 0 0 1 11.312 11.31l-11.156 11.154a7.974 7.974 0 0 1-5.656 2.344zM363.41 955.442a8 8 0 0 1-5.664-2.344l-11.388-11.404a8.006 8.006 0 0 1 11.326-11.31l11.388 11.404a8 8 0 0 1-5.662 13.654z" fill=""/>
<path d="M352.254 943.974a7.996 7.996 0 0 1-5.654-13.654l11.154-11.154a7.996 7.996 0 1 1 11.31 11.31l-11.154 11.154a7.964 7.964 0 0 1-5.656 2.344z" fill=""/>
<path d="M672.95 944.038H352.02a7.994 7.994 0 0 1-7.998-7.998c0-4.422 3.578-8 7.998-8h320.928a7.992 7.992 0 0 1 7.996 8 7.99 7.99 0 0 1-7.994 7.998z" fill=""/>
<path d="M912.012 672.462a7.996 7.996 0 0 1-5.656-13.654l11.406-11.388a7.996 7.996 0 1 1 11.308 11.31l-11.402 11.388a7.968 7.968 0 0 1-5.656 2.344z" fill=""/>
<path d="M911.95 672.228a7.976 7.976 0 0 1-5.656-2.344l-11.156-11.154a8 8 0 0 1 11.312-11.31l11.156 11.154a8 8 0 0 1-5.656 13.654zM900.45 378.922a8 8 0 0 1-5.656-13.654l11.406-11.39a8 8 0 1 1 11.312 11.312l-11.406 11.39a7.978 7.978 0 0 1-5.656 2.342z" fill=""/>
<path d="M923.07 378.922a7.966 7.966 0 0 1-5.652-2.342l-11.156-11.156a8 8 0 1 1 11.312-11.312l11.152 11.156a8 8 0 0 1-5.656 13.654z" fill=""/>
<path d="M911.856 672.462c-4.422 0-8-3.578-8-7.998V359.536c0-4.422 3.578-8 8-8s8 3.578 8 8v304.93a7.994 7.994 0 0 1-8 7.996z" fill=""/>
<path d="M112.13 672.462a8 8 0 0 1-5.654-13.654l11.404-11.388a8.006 8.006 0 0 1 11.318 0 8 8 0 0 1-0.008 11.31l-11.404 11.388a7.968 7.968 0 0 1-5.656 2.344z" fill=""/>
<path d="M112.068 672.228a7.972 7.972 0 0 1-5.654-2.344l-11.156-11.154a8 8 0 0 1 11.312-11.31l11.154 11.154a7.996 7.996 0 0 1-5.656 13.654zM100.57 378.922a7.992 7.992 0 0 1-5.656-13.654l11.406-11.39a8.006 8.006 0 0 1 11.318 0 8.002 8.002 0 0 1-0.008 11.312l-11.404 11.39a7.974 7.974 0 0 1-5.656 2.342z" fill=""/>
<path d="M123.192 378.922a7.978 7.978 0 0 1-5.656-2.342l-11.154-11.156a8 8 0 0 1 11.31-11.312l11.154 11.156a8 8 0 0 1-5.654 13.654z" fill=""/>
<path d="M111.974 672.462a7.994 7.994 0 0 1-7.998-7.998V359.536c0-4.422 3.578-8 7.998-8 4.422 0 8 3.578 8 8v304.93a7.994 7.994 0 0 1-8 7.996z" fill=""/>
</g>
</svg>